# xmcd
#
# Track frame offsets:
#	150
#	12661
#	22820
#	33865
#	46095
#	60845
#	73343
#	84897
#	97667
#	117034
#	131214
#	145088
#	155908
#	168157
#	181816
#	193043
#	208119
#	218140
#	228599
#	248319
#
# Disc length: 3478 seconds
#
# Revision: 1
# Processed by: cddbd v1.5.2PL0 Copyright (c) Steve Scherf et al.
# Submitted via: audiograbber 1.83.01
#
DISCID=010d9414
DTITLE=Various Artist - Country Masters Disk 1
DYEAR=1900
DGENRE=
TTITLE0=Johnny Cash - 01 - I Walk the Line
TTITLE1=Jim Reeves - 02 - He'll Have To Go
TTITLE2=Roger Miller - 03 - King of the Road
TTITLE3=Merie Haggard - 04 - Okie From Muskogee
TTITLE4=Jeannie C Riley - 05 The Harper Valley P.T.A.
TTITLE5=Charlie Rich - 06 - Behind Closed Doors
TTITLE6=Patsy Cline - 07 - Walking After Midnight
TTITLE7=Leroy Van Dyke - 08 - The Auctioneer
TTITLE8=Bobby Bare - 09 - Me and Bobby McGee
TTITLE9=Glen Campbell - 10 - Rhinestone Cowboy
TTITLE10=Willie Nelson - 11 - Home is Where You're Happy
TTITLE11=Guy Mitchell - 12 - Singing the Blues
TTITLE12=Susan Raye - 13 - L.A. International Airport
TTITLE13=Jimmy Dean - 14 - Big Bad John
TTITLE14=Tammy Wynette - 15 - D.I.V.O.R.C.E.
TTITLE15=Anne Murray - 16 - There Goes My Everything
TTITLE16=Brenda Lee - 17 - I'm Sorry
TTITLE17=Tex Williams - 18 - Battle of New Orleans
TTITLE18=Marty Robbins - 19 - El Paso
TTITLE19=The Oak Ridge Boys - 20 - You'll Never Walk Alone Again 
EXTD=
EXTT0=
EXTT1=
EXTT2=
EXTT3=
EXTT4=
EXTT5=
EXTT6=
EXTT7=
EXTT8=
EXTT9=
EXTT10=
EXTT11=
EXTT12=
EXTT13=
EXTT14=
EXTT15=
EXTT16=
EXTT17=
EXTT18=
EXTT19=
PLAYORDER=
